HIERARCHY
ROOT joint_Root
{
	OFFSET 0.0 0.0 0.0
	CHANNELS 6 Xposition Yposition Zposition Zrotation Xrotation Yrotation 
	JOINT Hips
	{
		OFFSET -0.726466 93.3139 -2.00062
		CHANNELS 6 Xposition Yposition Zposition Zrotation Xrotation Yrotation 
		JOINT Spine
		{
			OFFSET 15.7357 0.0 0.0
			CHANNELS 6 Xposition Yposition Zposition Zrotation Xrotation Yrotation 
			JOINT Chest
			{
				OFFSET 8.98455 -0.406207 0.0
				CHANNELS 6 Xposition Yposition Zposition Zrotation Xrotation Yrotation 
				JOINT Neck
				{
					OFFSET 16.3773 0.0 0.0
					CHANNELS 6 Xposition Yposition Zposition Zrotation Xrotation Yrotation 
					JOINT Head
					{
						OFFSET 6.45672 0.0 0.0
						CHANNELS 6 Xposition Yposition Zposition Zrotation Xrotation Yrotation 
						End Site
						{
							OFFSET 0.0 0.0 0.0
						}
					}
				}
				JOINT Shoulder_L
				{
					OFFSET 12.9942 -0.242716 4.98039
					CHANNELS 6 Xposition Yposition Zposition Zrotation Xrotation Yrotation 
					JOINT UpperArm_L
					{
						OFFSET 5.34809 0.0 0.0
						CHANNELS 6 Xposition Yposition Zposition Zrotation Xrotation Yrotation 
						JOINT LowerArm_L
						{
							OFFSET 24.3286 1.87007e-05 0.0
							CHANNELS 6 Xposition Yposition Zposition Zrotation Xrotation Yrotation 
							JOINT Hand_L
							{
								OFFSET 22.2916 0.0 0.0
								CHANNELS 6 Xposition Yposition Zposition Zrotation Xrotation Yrotation 
								End Site
								{
									OFFSET 0.0 0.0 0.0
								}
							}
						}
					}
				}
				JOINT Shoulder_R
				{
					OFFSET 12.9945 -0.242716 -4.98039
					CHANNELS 6 Xposition Yposition Zposition Zrotation Xrotation Yrotation 
					JOINT UpperArm_R
					{
						OFFSET -5.34813 0.0 0.0
						CHANNELS 6 Xposition Yposition Zposition Zrotation Xrotation Yrotation 
						JOINT LowerArm_R
						{
							OFFSET -24.3289 0.000322201 0.0
							CHANNELS 6 Xposition Yposition Zposition Zrotation Xrotation Yrotation 
							JOINT Hand_R
							{
								OFFSET -22.2915 -0.000108084 0.0
								CHANNELS 6 Xposition Yposition Zposition Zrotation Xrotation Yrotation 
								End Site
								{
									OFFSET 0.0 0.0 0.0
								}
							}
						}
					}
				}
			}
		}
		JOINT UpperLeg_L
		{
			OFFSET -2.19248 -6.46944 0.0
			CHANNELS 6 Xposition Yposition Zposition Zrotation Xrotation Yrotation 
			JOINT LowerLeg_L
			{
				OFFSET 39.0811 0.0 -1.23785e-05
				CHANNELS 6 Xposition Yposition Zposition Zrotation Xrotation Yrotation 
				JOINT Foot_L
				{
					OFFSET 40.9854 0.0 -1.26872e-05
					CHANNELS 6 Xposition Yposition Zposition Zrotation Xrotation Yrotation 
					JOINT Toes_L
					{
						OFFSET 11.7543 0.0 0.0
						CHANNELS 6 Xposition Yposition Zposition Zrotation Xrotation Yrotation 
						End Site
						{
							OFFSET 0.0 0.0 0.0
						}
					}
				}
			}
		}
		JOINT UpperLeg_R
		{
			OFFSET -2.19251 6.46944 0.0
			CHANNELS 6 Xposition Yposition Zposition Zrotation Xrotation Yrotation 
			JOINT LowerLeg_R
			{
				OFFSET -39.0811 -0.00228153 -0.0401928
				CHANNELS 6 Xposition Yposition Zposition Zrotation Xrotation Yrotation 
				JOINT Foot_R
				{
					OFFSET -40.9854 0.0 0.0
					CHANNELS 6 Xposition Yposition Zposition Zrotation Xrotation Yrotation 
					JOINT Toes_R
					{
						OFFSET -11.7543 0.0 0.0
						CHANNELS 6 Xposition Yposition Zposition Zrotation Xrotation Yrotation 
						End Site
						{
							OFFSET 0.0 0.0 0.0
						}
					}
				}
			}
		}
	}
}
MOTION
Frames:	6
Frame Time:	0.0333333
0.000000 0.000000 0.000000 0.000000 0.000000 -0.000000 -1.539230 92.241200 -3.569160 87.697500 0.678028 3.936580 15.735700 0.000005 -0.000001 82.418000 84.322000 -81.827500 8.984550 -0.406207 -0.000000 3.499730 -1.518520 1.226170 16.377300 -0.000001 -0.000001 3.593170 -1.453160 1.034200 6.456720 -0.000001 -0.000000 1.579040 -0.712122 -1.993740 12.994200 -0.242716 4.980390 -90.141700 0.394776 -70.257500 5.348090 -0.000007 -0.000001 -57.761100 33.424100 -10.321400 24.328600 0.000019 0.000005 -2.852440 -3.079610 -42.844600 22.291600 -0.000001 0.000005 4.210570 5.639840 -14.111800 12.994500 -0.242716 -4.980390 87.788700 5.961320 -69.605000 -5.348130 -0.000001 -0.000004 -59.012600 30.556900 -10.414300 -24.328900 0.000322 -0.000009 -1.448620 -2.784310 -27.484000 -22.291500 -0.000108 -0.000004 1.273010 5.564040 -9.387070 -2.192480 -6.469440 -0.000000 -169.642000 -15.985200 -4.618190 39.081100 -0.000007 -0.000012 -0.138976 0.342927 22.061100 40.985400 -0.000006 -0.000013 -6.029660 -0.923517 -61.794400 11.754300 -0.000000 0.000003 -0.000107 -0.001093 -16.619400 -2.192510 6.469440 -0.000001 175.122000 24.292700 178.518000 -39.081100 -0.002282 -0.040193 -0.023917 0.075580 19.818700 -40.985400 0.000008 0.000006 -2.197130 1.709100 -62.287100 -11.754300 -0.000006 -0.000006 -0.004255 -0.054070 -18.772700
0.000000 0.000000 0.000000 0.000000 0.000000 -0.000000 -1.526970 92.255400 -3.619080 87.719700 0.971880 3.936640 15.735700 0.000005 -0.000001 82.507700 84.296700 -81.892500 8.984550 -0.406207 -0.000000 3.552600 -1.508100 1.275830 16.377300 -0.000001 -0.000001 3.142970 -1.481630 0.953987 6.456720 -0.000001 -0.000000 1.124460 -0.739649 -2.221520 12.994200 -0.242716 4.980390 -90.110400 0.309979 -70.396500 5.348090 -0.000007 -0.000001 -56.314700 35.904100 -11.091200 24.328600 0.000019 0.000005 -2.684500 -2.757880 -44.261700 22.291600 -0.000001 0.000005 4.352050 5.645230 -14.573400 12.994500 -0.242716 -4.980390 87.795300 5.970670 -69.690100 -5.348130 -0.000001 -0.000004 -57.618600 30.653600 -11.557300 -24.328900 0.000322 -0.000009 -1.373720 -2.606280 -27.786900 -22.291500 -0.000108 -0.000004 1.561440 5.560930 -9.233310 -2.192480 -6.469440 -0.000000 -169.703000 -15.994900 -4.692920 39.081100 -0.000007 -0.000012 -0.136481 0.338027 21.986800 40.985400 -0.000006 -0.000013 -5.939300 -0.660588 -61.670200 11.754300 -0.000000 0.000003 -0.000122 -0.001217 -16.624100 -2.192510 6.469440 -0.000001 175.132000 24.298900 178.526000 -39.081100 -0.002282 -0.040193 -0.021247 0.068331 19.776300 -40.985400 0.000008 0.000006 -2.105190 1.400310 -62.268000 -11.754300 -0.000006 -0.000006 -0.004188 -0.053385 -18.744800
0.000000 0.000000 0.000000 0.000000 0.000000 -0.000000 -1.518160 92.251200 -3.665390 87.742400 1.274940 3.968450 15.735700 0.000005 -0.000001 82.358800 84.268200 -81.725200 8.984550 -0.406207 -0.000000 3.605710 -1.545360 1.314480 16.377300 -0.000001 -0.000001 2.743730 -1.505480 0.905850 6.456720 -0.000001 -0.000000 0.616663 -0.722708 -2.379560 12.994200 -0.242716 4.980390 -90.049400 0.139626 -70.534100 5.348090 -0.000007 -0.000001 -54.608400 38.776100 -11.858200 24.328600 0.000019 0.000005 -2.523040 -2.421050 -46.208900 22.291600 -0.000001 0.000005 4.779660 5.652150 -15.216800 12.994500 -0.242716 -4.980390 87.823500 5.913560 -69.751500 -5.348130 -0.000001 -0.000004 -55.801500 30.644800 -12.999500 -24.328900 0.000322 -0.000009 -1.278240 -2.346780 -28.567700 -22.291500 -0.000108 -0.000004 2.162740 5.558200 -9.099570 -2.192480 -6.469440 -0.000000 -169.766000 -15.828600 -4.798740 39.081100 -0.000007 -0.000012 -0.136274 0.336651 22.037900 40.985400 -0.000006 -0.000013 -5.889830 -0.556006 -61.628500 11.754300 -0.000000 0.000003 -0.000102 -0.001049 -16.617800 -2.192510 6.469440 -0.000001 175.082000 24.229200 178.579000 -39.081100 -0.002282 -0.040193 -0.026130 0.082009 19.754600 -40.985400 0.000008 0.000006 -2.373840 1.104870 -62.252300 -11.754300 -0.000006 -0.000006 -0.004245 -0.053968 -18.768500
0.000000 0.000000 0.000000 0.000000 0.000000 -0.000000 -1.473610 92.262800 -3.700740 87.761600 1.350280 4.011140 15.735700 0.000005 -0.000001 82.533100 84.258600 -81.890500 8.984550 -0.406207 -0.000000 3.629330 -1.513520 1.331700 16.377300 -0.000001 -0.000001 2.297460 -1.458430 0.854748 6.456720 -0.000001 -0.000000 0.268854 -0.681763 -2.476270 12.994200 -0.242716 4.980390 -89.969800 -0.086242 -70.664100 5.348090 -0.000007 -0.000001 -52.357200 42.288000 -12.680100 24.328600 0.000019 0.000005 -2.456490 -2.147350 -48.870000 22.291600 -0.000001 0.000005 5.617940 5.662040 -16.281500 12.994500 -0.242716 -4.980390 87.860700 5.850100 -69.872500 -5.348130 -0.000001 -0.000004 -53.679200 29.900300 -14.550300 -24.328900 0.000322 -0.000009 -1.020110 -1.771360 -29.924000 -22.291500 -0.000108 -0.000004 2.772010 5.556100 -8.998380 -2.192480 -6.469440 -0.000000 -169.810000 -15.832500 -4.764100 39.081100 -0.000007 -0.000012 -0.136624 0.338541 21.977500 40.985400 -0.000006 -0.000013 -5.837460 -0.479480 -61.572500 11.754300 -0.000000 0.000003 -0.000099 -0.001018 -16.616600 -2.192510 6.469440 -0.000001 175.038000 24.124800 178.661000 -39.081100 -0.002282 -0.040193 -0.026786 0.084369 19.639400 -40.985400 0.000008 0.000006 -2.523020 0.927151 -62.168700 -11.754300 -0.000006 -0.000006 -0.004380 -0.055334 -18.824100
0.000000 0.000000 0.000000 0.000000 0.000000 -0.000000 -1.424140 92.260900 -3.735910 87.773900 1.223360 4.024730 15.735700 0.000005 -0.000001 82.826500 84.262900 -82.168200 8.984550 -0.406207 -0.000000 3.627990 -1.454760 1.361200 16.377300 -0.000001 -0.000001 1.899170 -1.326100 0.854852 6.456720 -0.000001 -0.000000 -0.084820 -0.524032 -2.705680 12.994200 -0.242716 4.980390 -89.868600 -0.375803 -70.729100 5.348090 -0.000007 -0.000001 -49.612200 46.146500 -13.578900 24.328600 0.000019 0.000005 -1.920170 -1.481810 -52.361800 22.291600 -0.000001 0.000005 6.685700 5.670650 -17.456200 12.994500 -0.242716 -4.980390 87.953200 5.625350 -69.968700 -5.348130 -0.000001 -0.000004 -51.080200 28.793700 -16.508000 -24.328900 0.000322 -0.000009 -0.675338 -1.087020 -31.819600 -22.291500 -0.000108 -0.000004 3.645720 5.552160 -8.809050 -2.192480 -6.469440 -0.000000 -169.842000 -15.945600 -4.766680 39.081100 -0.000007 -0.000012 -0.138012 0.341179 22.024200 40.985400 -0.000006 -0.000013 -5.804510 -0.502723 -61.591900 11.754300 -0.000000 0.000003 -0.000100 -0.001026 -16.616900 -2.192510 6.469440 -0.000001 174.987000 24.008600 178.651000 -39.081100 -0.002282 -0.040193 -0.029161 0.091132 19.617800 -40.985400 0.000008 0.000006 -2.649440 0.986182 -62.112900 -11.754300 -0.000006 -0.000006 -0.004490 -0.056446 -18.869500
0.000000 0.000000 0.000000 0.000000 0.000000 -0.000000 -1.360890 92.270400 -3.780160 87.790000 0.896012 4.031690 15.735700 0.000005 -0.000001 83.367200 84.290400 -82.706900 8.984550 -0.406207 -0.000000 3.585700 -1.341400 1.361240 16.377300 -0.000001 -0.000001 1.566170 -1.141940 0.849538 6.456720 -0.000001 -0.000000 -0.419077 -0.326307 -2.819150 12.994200 -0.242716 4.980390 -89.734200 -0.760427 -70.734300 5.348090 -0.000007 -0.000001 -46.188200 50.296500 -14.741200 24.328600 0.000019 0.000005 -1.089940 -0.721965 -56.512200 22.291600 -0.000001 0.000005 7.746040 5.677360 -18.769900 12.994500 -0.242716 -4.980390 88.045700 5.375640 -69.987100 -5.348130 -0.000001 -0.000004 -48.023200 27.079800 -18.714800 -24.328900 0.000322 -0.000009 -0.356753 -0.521450 -34.307900 -22.291500 -0.000108 -0.000004 4.180730 5.548800 -8.649830 -2.192480 -6.469440 -0.000000 -169.878000 -16.161500 -4.687580 39.081100 -0.000007 -0.000012 -0.137953 0.341578 21.992500 40.985400 -0.000006 -0.000013 -5.778630 -0.615917 -61.600700 11.754300 -0.000000 0.000003 -0.000101 -0.001041 -16.617500 -2.192510 6.469440 -0.000001 174.962000 23.919400 178.591000 -39.081100 -0.002282 -0.040193 -0.027554 0.086785 19.584600 -40.985400 0.000008 0.000006 -2.606110 1.176100 -62.013000 -11.754300 -0.000006 -0.000006 -0.004520 -0.056745 -18.881600
